<svg width="26" height="31" viewBox="0 0 26 31" fill="none" xmlns="http://www.w3.org/2000/svg">
<path d="M25.539 6.054C25.129 3.095 23.573 1.882 22.729 1.436C22.181 1.145 20.557 0.703003 19.116 0.703003C17.054 0.703003 15.386 1.016 15.033 1.113C13.724 1.469 13.159 1.934 13.117 2.408C13.067 2.963 13.103 3.123 13.103 3.123L13.724 3.134C13.724 2.288 13.976 2.17 14.359 2.012C15.008 1.743 15.747 1.417 18.562 1.337C21.535 1.254 22.723 1.988 23.346 2.647C24.985 4.377 25.101 6.146 25.183 11.805C25.262 17.249 24.775 18.489 24.495 19.415C24.186 20.441 23.58 21.103 22.605 21.2C22.237 21.237 21.637 21.231 21.098 21.214V5.222C21.098 4.697 20.672 4.271 20.147 4.271H13.783V3.517C13.783 3.403 13.69 3.309 13.575 3.309H13.177C13.062 3.309 12.969 3.403 12.969 3.517V4.271H2.266C1.741 4.271 1.315 4.697 1.315 5.222V10.138H0.521C0.258 10.138 0.0450001 10.352 0.0450001 10.615V16.977C0.0450001 17.241 0.258 17.453 0.521 17.453H1.315V30.002C1.315 30.527 1.741 30.953 2.266 30.953H20.147C20.672 30.953 21.098 30.527 21.098 30.002V21.953C21.403 21.953 21.78 21.953 22.248 21.953C23.609 21.953 24.178 21.302 24.607 20.72C25.147 19.987 25.628 18.201 25.737 16.324C25.938 12.871 25.794 7.902 25.539 6.054ZM15.112 26.789H4.804V14.578H15.112V26.789V26.789ZM17.927 10.852H4.804V6.887H17.927V10.852Z" fill="white"/>
<path d="M7.804 17.155C7.804 17.243 7.733 17.313 7.646 17.313H6.258C6.17 17.313 6.099 17.243 6.099 17.155V16.104C6.099 16.016 6.17 15.946 6.258 15.946H7.646C7.733 15.946 7.804 16.016 7.804 16.104V17.155Z" fill="white"/>
<path d="M10.579 17.155C10.579 17.243 10.508 17.313 10.42 17.313H9.032C8.945 17.313 8.873 17.243 8.873 17.155V16.104C8.873 16.016 8.945 15.946 9.032 15.946H10.42C10.507 15.946 10.579 16.016 10.579 16.104V17.155Z" fill="white"/>
<path d="M13.354 17.155C13.354 17.243 13.283 17.313 13.196 17.313H11.808C11.721 17.313 11.65 17.243 11.65 17.155V16.104C11.65 16.016 11.72 15.946 11.808 15.946H13.196C13.283 15.946 13.354 16.016 13.354 16.104V17.155Z" fill="white"/>
<path d="M7.804 19.772C7.804 19.86 7.733 19.93 7.646 19.93H6.258C6.17 19.93 6.099 19.86 6.099 19.772V18.721C6.099 18.633 6.17 18.563 6.258 18.563H7.646C7.733 18.563 7.804 18.633 7.804 18.721V19.772Z" fill="white"/>
<path d="M10.579 19.772C10.579 19.86 10.508 19.93 10.42 19.93H9.032C8.945 19.93 8.873 19.86 8.873 19.772V18.721C8.873 18.633 8.945 18.563 9.032 18.563H10.42C10.507 18.563 10.579 18.633 10.579 18.721V19.772Z" fill="white"/>
<path d="M13.354 19.772C13.354 19.86 13.283 19.93 13.196 19.93H11.808C11.721 19.93 11.65 19.86 11.65 19.772V18.721C11.65 18.633 11.72 18.563 11.808 18.563H13.196C13.283 18.563 13.354 18.633 13.354 18.721V19.772Z" fill="white"/>
<path d="M7.804 22.388C7.804 22.477 7.733 22.548 7.646 22.548H6.258C6.17 22.548 6.099 22.477 6.099 22.388V21.339C6.099 21.25 6.17 21.179 6.258 21.179H7.646C7.733 21.179 7.804 21.25 7.804 21.339V22.388Z" fill="white"/>
<path d="M10.579 22.388C10.579 22.477 10.508 22.548 10.42 22.548H9.032C8.945 22.548 8.873 22.477 8.873 22.388V21.339C8.873 21.25 8.945 21.179 9.032 21.179H10.42C10.507 21.179 10.579 21.25 10.579 21.339V22.388Z" fill="white"/>
<path d="M13.354 22.388C13.354 22.477 13.283 22.548 13.196 22.548H11.808C11.721 22.548 11.65 22.477 11.65 22.388V21.339C11.65 21.25 11.72 21.179 11.808 21.179H13.196C13.283 21.179 13.354 21.25 13.354 21.339V22.388Z" fill="white"/>
<path d="M7.804 25.006C7.804 25.093 7.733 25.164 7.646 25.164H6.258C6.17 25.164 6.099 25.093 6.099 25.006V23.954C6.099 23.867 6.17 23.796 6.258 23.796H7.646C7.733 23.796 7.804 23.867 7.804 23.954V25.006Z" fill="white"/>
<path d="M10.579 25.006C10.579 25.093 10.508 25.164 10.42 25.164H9.032C8.945 25.164 8.873 25.093 8.873 25.006V23.954C8.873 23.867 8.945 23.796 9.032 23.796H10.42C10.507 23.796 10.579 23.867 10.579 23.954V25.006Z" fill="white"/>
<path d="M13.354 25.006C13.354 25.093 13.283 25.164 13.196 25.164H11.808C11.721 25.164 11.65 25.093 11.65 25.006V23.954C11.65 23.867 11.72 23.796 11.808 23.796H13.196C13.283 23.796 13.354 23.867 13.354 23.954V25.006Z" fill="white"/>
</svg>
