<svg width="28" height="25" viewBox="0 0 28 25" fill="none" xmlns="http://www.w3.org/2000/svg">
<path fill-rule="evenodd" clip-rule="evenodd" d="M27.344 10.253V11.08C27.344 11.14 27.324 11.188 27.285 11.227C27.225 11.346 27.128 11.454 26.99 11.551C26.872 11.651 26.734 11.719 26.576 11.758C26.398 11.817 26.231 11.837 26.075 11.817C25.877 11.778 25.68 11.691 25.484 11.551C24.204 10.705 23.032 10.074 21.97 9.66199C20.907 9.26699 19.912 9.02199 18.987 8.92299C18.141 8.90399 17.373 8.93299 16.683 9.01199C16.034 9.11099 15.434 9.19999 14.882 9.27899C14.488 9.35799 14.104 9.39699 13.73 9.39699C13.356 9.41599 12.983 9.42599 12.608 9.42599H12.431C12.215 9.32799 11.999 9.23799 11.782 9.15899C11.624 9.07999 11.446 9.02199 11.25 8.98199C11.054 8.92199 10.907 8.87399 10.808 8.83499C10.709 8.99199 10.62 9.13999 10.541 9.27799C10.463 9.39599 10.345 9.49399 10.188 9.57299C10.266 9.71099 10.434 9.97699 10.688 10.37C10.945 10.724 11.19 11.059 11.427 11.373C11.408 11.414 11.408 11.443 11.427 11.464C11.427 11.522 11.467 11.551 11.546 11.551L12.431 12.29C12.647 12.29 12.647 12.397 12.431 12.615C12.372 12.674 12.334 12.703 12.313 12.703C12.294 12.703 12.235 12.674 12.136 12.615L11.693 12.29C11.871 12.822 12 13.362 12.077 13.914C12.136 14.466 12.215 15.085 12.313 15.774C12.608 17.212 13.141 18.52 13.908 19.701C14.676 20.883 15.72 21.896 17.038 22.743C17.236 22.901 17.363 23.038 17.422 23.156C17.441 23.294 17.452 23.412 17.452 23.511V23.688C17.452 23.846 17.422 23.983 17.363 24.101C17.304 24.239 17.226 24.337 17.127 24.396C17.127 24.495 17.097 24.603 17.038 24.721C16.959 24.82 16.792 24.868 16.537 24.868C16.379 25.046 16.084 24.986 15.651 24.69L15.504 24.602C13.909 23.597 12.64 22.436 11.694 21.118C10.77 19.779 10.11 18.313 9.716 16.719C9.638 16.088 9.578 15.528 9.538 15.035C9.46 14.543 9.42 14.08 9.42 13.647C9.322 13.332 9.263 13.016 9.243 12.702C9.225 12.367 9.195 12.132 9.155 11.994L8.83 11.641L8.239 10.667C8.042 10.47 7.885 10.283 7.767 10.105C7.63 9.92799 7.521 9.78099 7.442 9.66299C7.324 9.54499 7.265 9.46599 7.265 9.42699C7.187 9.38699 7.02 9.31999 6.764 9.22099C6.528 9.10099 6.281 8.99299 6.025 8.89499C5.711 8.77699 5.366 8.64999 4.991 8.51199L0.147 4.55399L0 4.34799C0 4.26899 0.05 4.22999 0.147 4.22999V4.08199C0.147 3.98299 0.246 3.93499 0.442 3.93499L5.61 5.91299C5.689 5.97199 5.728 6.04099 5.728 6.11899C5.748 6.19899 5.759 6.27599 5.759 6.35499C5.759 6.65099 5.808 6.79799 5.906 6.79799C6.103 6.85699 6.25 6.84799 6.349 6.76999C6.428 6.72999 6.487 6.69099 6.526 6.65199V6.50399L7.087 5.76499C7.166 5.62799 7.176 5.51899 7.117 5.44099C7.019 5.39999 6.929 5.38099 6.85 5.38099L6.674 5.43999C6.576 5.43999 6.478 5.43999 6.378 5.43999C6.259 5.41999 6.201 5.37099 6.201 5.29299L2.893 0.921986V0.566986H3.336L7.736 3.63899H7.913C8.229 4.07099 8.504 4.45499 8.74 4.79099C8.957 5.08599 9.153 5.36199 9.331 5.61699C9.547 5.85399 9.675 5.99099 9.715 6.02999C9.813 6.06899 10.011 6.12899 10.306 6.20799C10.58 6.30599 10.876 6.39499 11.191 6.47399C11.526 6.57299 11.84 6.65199 12.136 6.70999C12.411 6.76999 12.569 6.79899 12.608 6.79899C12.805 6.79899 13.397 6.74899 14.38 6.65199C15.325 6.55199 16.604 6.50499 18.218 6.50499C19.163 6.50499 19.941 6.53399 20.55 6.59299C21.162 6.67199 21.762 6.82899 22.352 7.06599C22.943 7.32199 23.602 7.67599 24.332 8.12899C25.059 8.60099 25.995 9.23899 27.136 10.047C27.236 10.105 27.304 10.175 27.344 10.253ZM12.431 10.461L13.642 10.933C13.74 10.933 13.789 11.031 13.789 11.228C13.711 11.228 13.662 11.248 13.642 11.288C13.622 11.326 13.572 11.308 13.494 11.228L12.313 10.933C12.215 10.933 12.156 10.903 12.136 10.844C12.136 10.765 12.136 10.706 12.136 10.667C12.136 10.548 12.175 10.489 12.253 10.489C12.313 10.47 12.372 10.461 12.431 10.461ZM12.608 10.046C12.608 9.96899 12.628 9.91899 12.667 9.89999C12.687 9.85799 12.716 9.83899 12.755 9.83899L13.966 10.045C14.045 10.045 14.124 10.074 14.203 10.135C14.261 10.193 14.291 10.252 14.291 10.312C14.291 10.391 14.261 10.44 14.203 10.46C14.123 10.46 14.044 10.46 13.966 10.46L12.755 10.312C12.658 10.313 12.608 10.225 12.608 10.046ZM13.228 11.996C13.111 11.996 13.022 12.006 12.963 12.025C12.923 12.064 12.904 12.054 12.904 11.996L11.84 11.374C11.743 11.374 11.693 11.277 11.693 11.08C11.772 11.08 11.821 11.06 11.84 11.021C11.861 10.982 11.921 11 12.017 11.08L13.022 11.641C13.14 11.641 13.21 11.681 13.228 11.759C13.228 11.838 13.228 11.917 13.228 11.996Z" fill="white"/>
</svg>
