<svg width="32" height="32" viewBox="0 0 32 32" fill="none" xmlns="http://www.w3.org/2000/svg">
<path d="M31.656 20.297L24.343 16.269L29.843 7.95399L20.718 10.61L20.063 0.515991L15.125 9.89099L7.219 2.35899L10.375 12.859L0.344002 13.109L8.532 19.515L4.219 26.89L12.344 22.984L12.688 31.484L18.188 25.296L25.157 30.89L23.532 22.296L31.656 20.297ZM21.75 25.172L18.187 21.891L14.593 26.047L14.062 20.078L9.062 22.422L11.437 18.922L5.937 15.109L13.062 14.89L11.656 9.48399L15.844 13.297L18.344 8.82799L19.171 13.715L24.25 12.203L20.969 17.234L25.487 19.607L20.969 20.546L21.75 25.172Z" fill="white"/>
<path d="M12.794 16.944L15.469 17.016L14.969 15.109L16.813 15.891L17.531 14.391L17.844 15.891L19.5 15.703L18.5 17.016L19.969 18.359H18.563L19.031 20.047L17.406 18.922L16.281 20.391V18.734L14.719 18.891L15.313 18.016L12.794 16.944Z" fill="white"/>
</svg>
